<svg width="16" height="16" viewBox="0 0 16 16" fill="none" xmlns="http://www.w3.org/2000/svg">
<g clip-path="url(#clip0_101_207)">
<path d="M8.10913 12.1475C7.61108 12.1475 7.13745 12.0498 6.68823 11.8545C6.24878 11.6592 5.86304 11.3955 5.53101 11.0635C5.19897 10.7314 4.9353 10.3457 4.73999 9.90625C4.54468 9.45703 4.44702 8.9834 4.44702 8.48535C4.44702 7.9873 4.54468 7.51367 4.73999 7.06445C4.9353 6.625 5.19897 6.23926 5.53101 5.90723C5.86304 5.5752 6.24878 5.31152 6.68823 5.11621C7.13745 4.9209 7.61108 4.82324 8.10913 4.82324C8.60718 4.82324 9.08081 4.9209 9.53003 5.11621C9.96948 5.31152 10.3552 5.5752 10.6873 5.90723C11.0193 6.23926 11.283 6.625 11.4783 7.06445C11.6736 7.51367 11.7712 7.9873 11.7712 8.48535C11.7712 8.9834 11.6736 9.45703 11.4783 9.90625C11.283 10.3457 11.0193 10.7314 10.6873 11.0635C10.3552 11.3955 9.96948 11.6592 9.53003 11.8545C9.08081 12.0498 8.60718 12.1475 8.10913 12.1475ZM8.10913 5.6582C7.31812 5.6582 6.64917 5.93164 6.10229 6.47852C5.55542 7.02539 5.28198 7.69434 5.28198 8.48535C5.28198 9.27637 5.55542 9.94531 6.10229 10.4922C6.64917 11.0391 7.31812 11.3125 8.10913 11.3125C8.90015 11.3125 9.56909 11.0391 10.116 10.4922C10.6628 9.94531 10.9363 9.27637 10.9363 8.48535C10.9363 7.69434 10.6628 7.02539 10.116 6.47852C9.56909 5.93164 8.90015 5.6582 8.10913 5.6582ZM11.698 15.9854H4.52026C3.98315 15.9854 3.47534 15.8828 2.99683 15.6777C2.51831 15.4727 2.10327 15.1943 1.75171 14.8428C1.40015 14.4912 1.12183 14.0762 0.916748 13.5977C0.71167 13.1191 0.609131 12.6113 0.609131 12.0742V4.89648C0.609131 4.35938 0.71167 3.85156 0.916748 3.37305C1.12183 2.89453 1.40015 2.47949 1.75171 2.12793C2.10327 1.77637 2.51831 1.49805 2.99683 1.29297C3.47534 1.08789 3.98315 0.985352 4.52026 0.985352H11.698C12.2351 0.985352 12.7429 1.08789 13.2214 1.29297C13.7 1.49805 14.115 1.77637 14.4666 2.12793C14.8181 2.47949 15.0964 2.89453 15.3015 3.37305C15.5066 3.85156 15.6091 4.35938 15.6091 4.89648V12.0742C15.6091 12.6113 15.5066 13.1191 15.3015 13.5977C15.0964 14.0762 14.8181 14.4912 14.4666 14.8428C14.115 15.1943 13.7 15.4727 13.2214 15.6777C12.7429 15.8828 12.2351 15.9854 11.698 15.9854ZM4.52026 1.82031C4.11011 1.82031 3.7146 1.90332 3.33374 2.06934C2.96265 2.23535 2.63794 2.45752 2.35962 2.73584C2.0813 3.01416 1.85913 3.33887 1.69312 3.70996C1.5271 4.09082 1.44409 4.48633 1.44409 4.89648V12.0742C1.44409 12.4844 1.5271 12.8799 1.69312 13.2607C1.85913 13.6318 2.0813 13.9565 2.35962 14.2349C2.63794 14.5132 2.96265 14.7354 3.33374 14.9014C3.7146 15.0674 4.11011 15.1504 4.52026 15.1504H11.698C12.1082 15.1504 12.5037 15.0674 12.8845 14.9014C13.2556 14.7354 13.5803 14.5132 13.8586 14.2349C14.137 13.9565 14.3591 13.6318 14.5251 13.2607C14.6912 12.8799 14.7742 12.4844 14.7742 12.0742V4.89648C14.7742 4.48633 14.6912 4.09082 14.5251 3.70996C14.3591 3.33887 14.137 3.01416 13.8586 2.73584C13.5803 2.45752 13.2556 2.23535 12.8845 2.06934C12.5037 1.90332 12.1082 1.82031 11.698 1.82031H4.52026ZM12.3572 5.2334C12.6111 5.2334 12.8406 5.14062 13.0457 4.95508C13.2507 4.76953 13.3533 4.53027 13.3533 4.2373C13.3533 3.9834 13.2605 3.75391 13.075 3.54883C12.8894 3.34375 12.6501 3.24121 12.3572 3.24121C12.113 3.24121 11.886 3.33398 11.676 3.51953C11.4661 3.70508 11.3611 3.94434 11.3611 4.2373C11.3611 4.53027 11.4539 4.76953 11.6394 4.95508C11.825 5.14062 12.0642 5.2334 12.3572 5.2334Z" fill="black"/>
</g>
<defs>
<clipPath id="clip0_101_207">
<rect width="15" height="15" fill="white" transform="matrix(1 0 0 -1 0.609131 15.9854)"/>
</clipPath>
</defs>
</svg>
